<svg width="28" height="28" viewBox="0 0 28 28" fill="none" xmlns="http://www.w3.org/2000/svg">
<path d="M13.1326 0.124971C20.8826 -0.335029 27.2926 5.64496 27.7426 13.115C28.1926 20.725 22.3325 27.285 14.7325 27.735C7.13255 28.185 0.652571 22.4149 0.132571 14.8849C-0.387429 7.33495 5.30257 0.584971 13.1326 0.124971ZM9.13257 21.605C9.43257 22.115 10.3125 22.405 10.7225 22.305C11.2525 22.175 11.7126 21.795 12.0126 21.325L17.1025 13.545L23.7026 5.44498C18.3326 8.42498 14.1325 12.745 10.6025 17.675L7.96253 13.305C7.24253 12.115 5.45255 11.925 4.36255 12.655C4.21255 12.925 4.30264 13.595 4.45264 13.855L9.11255 21.595L9.13257 21.605Z" fill="#259539" stroke="#88B532" stroke-width="0.2" stroke-miterlimit="10"/>
<path d="M9.13238 21.6048L4.47235 13.8648C4.31235 13.6048 4.23238 12.9348 4.38238 12.6648C5.47238 11.9248 7.26236 12.1248 7.98236 13.3148L10.6224 17.6848C14.1524 12.7448 18.3423 8.42483 23.7223 5.45483L17.1224 13.5548L12.0324 21.3348C11.7224 21.8048 11.2724 22.1948 10.7424 22.3148C10.3224 22.4149 9.4524 22.1248 9.1524 21.6148L9.13238 21.6048Z" fill="white"/>
</svg>
