<svg width="58" height="58" viewBox="0 0 58 58" fill="none" xmlns="http://www.w3.org/2000/svg">
<path d="M28.7501 56.8801C44.2859 56.8801 56.8801 44.2859 56.8801 28.7501C56.8801 13.2144 44.2859 0.620117 28.7501 0.620117C13.2144 0.620117 0.620117 13.2144 0.620117 28.7501C0.620117 44.2859 13.2144 56.8801 28.7501 56.8801Z" stroke="#224124" stroke-width="1.24" stroke-miterlimit="10"/>
<path d="M50.8297 36.1902C50.7497 37.0002 48.8397 37.3301 48.0697 37.3901C46.5897 37.0201 45.5497 37.2301 44.9697 38.0201C36.0697 40.2701 24.1297 40.0502 15.0997 38.4502C14.8297 38.4002 14.5597 38.2701 14.2997 38.1301C14.0297 37.9901 13.7797 37.8201 13.5297 37.6401L13.0797 37.4202C12.7997 36.8102 12.1297 36.7101 11.0697 37.1501C10.9697 37.3301 10.8197 37.5902 10.6697 37.5702C8.88968 37.2902 6.23973 36.6201 4.46973 36.1301L4.77972 36.4102C13.0497 59.6602 44.8697 59.2101 53.0297 36.1501L51.2197 36.6301L50.8397 36.2102L50.8297 36.1902Z" fill="#224124"/>
<path d="M11.0698 37.1303C11.6898 36.6303 13.2498 36.7803 13.5298 37.6303C23.7598 39.7003 34.3698 39.5503 44.7498 37.6103C45.1898 36.6703 45.9298 36.6304 46.8498 36.8304C48.2698 37.1404 49.5998 36.4404 50.8298 36.1904C51.7498 36.0004 52.4997 35.5703 53.7897 35.5903C52.6997 38.8203 51.1598 41.5803 49.1498 44.1703C41.1198 54.5703 26.4698 57.3403 15.2598 50.3803C9.80977 46.9903 5.89977 41.6804 4.00977 35.6904C4.16977 35.6104 4.47977 35.5403 4.75977 35.6103L11.0698 37.1303Z" fill="#224124"/>
<path d="M32.8506 20.26C31.9306 22.22 29.9806 23.23 28.0706 22.97C26.0706 22.7 24.5306 21.11 24.1206 19C23.9106 17.35 24.4206 15.73 25.2306 14.27L28.7106 8L32.6906 15.4601C33.4606 16.9101 33.5906 18.68 32.8506 20.26Z" fill="#224124"/>
<path d="M18.4199 20.12C17.8199 22.09 16.0399 23.17 14.2699 22.98C12.3699 22.78 10.9699 21.34 10.7299 19.34C10.6699 18.2 10.9399 17.04 11.4999 16.04L14.7099 10.23L17.8599 16.03C18.5299 17.26 18.8099 18.64 18.4399 20.12H18.4199Z" fill="#224124"/>
<path d="M46.7004 19.3102C46.4504 21.4302 44.8704 22.9501 42.9404 23.0001C41.0104 23.0501 39.2104 21.5701 38.9504 19.5001C38.7604 18.0601 39.2504 16.7002 39.9404 15.4402L42.8404 10.1401L45.7904 15.6702C46.3704 16.7602 46.8004 17.9602 46.7104 19.3102H46.7004Z" fill="#224124"/>
<path d="M29.7706 32.3002C30.3106 32.5202 30.2706 33.1001 30.1406 33.3401C29.7406 34.0901 27.8606 33.9602 27.5806 33.4402C27.3906 33.0802 27.4306 32.3801 27.9106 32.2601C28.4406 32.1201 29.2106 32.0702 29.7706 32.3002Z" fill="#224124"/>
<path d="M29.7501 36.84C30.1901 37.05 30.1501 37.6801 30.0301 37.9501C29.7801 38.5601 27.9401 38.6301 27.6701 37.8901C27.5501 37.5601 27.5801 36.8901 28.1601 36.7701C28.6101 36.6801 29.2701 36.6101 29.7501 36.8301V36.84Z" fill="#224124"/>
<path d="M47.0401 32.2901C47.5801 32.5401 47.5402 33.0902 47.4102 33.3302C47.0402 33.9902 45.5301 34.0301 45.0501 33.5401C44.8101 33.3001 44.6801 32.7001 45.1301 32.3801C45.5801 32.0601 46.4701 32.0401 47.0401 32.2901Z" fill="#224124"/>
<path d="M21.13 35.2199C21.65 35.3799 21.64 36.07 21.46 36.39C21.14 36.95 19.51 36.9499 19.19 36.3599C18.98 35.9799 19.06 35.37 19.63 35.21C20.05 35.09 20.58 35.05 21.14 35.21L21.13 35.2199Z" fill="#224124"/>
<path d="M39.3896 30.8901C39.8896 31.1001 39.8096 31.6401 39.6996 31.8701C39.3496 32.5401 37.8096 32.5001 37.4496 32.1001C37.1996 31.8201 37.1496 31.1001 37.5896 30.8701C38.0596 30.6201 38.8196 30.6401 39.3896 30.8801V30.8901Z" fill="#224124"/>
<path d="M12.3897 32.0703C13.1697 32.0903 13.4697 32.5602 13.4397 32.9702C13.3797 33.9202 11.5697 33.8802 11.0597 33.5002C10.8097 33.3102 10.7798 32.7103 10.9698 32.4203C11.2298 32.0303 11.7998 32.0603 12.3998 32.0703H12.3897Z" fill="#224124"/>
<path d="M39.0805 26.2603C39.6505 26.3603 39.7705 26.9003 39.7105 27.2003C39.6005 27.7303 39.1705 27.9003 38.5605 27.8803C38.0605 27.8703 37.5405 27.8803 37.3505 27.4503C37.1605 27.0203 37.3305 26.3703 37.9205 26.2503C38.2605 26.1803 38.6405 26.1803 39.0805 26.2503V26.2603Z" fill="#224124"/>
<path d="M21.1303 30.8802C21.6603 31.0802 21.6303 31.6502 21.5103 31.9502C21.2503 32.6102 19.5203 32.4901 19.2003 32.1001C18.9703 31.8201 18.9203 31.1402 19.3703 30.9102C19.8503 30.6602 20.5403 30.6602 21.1403 30.8802H21.1303Z" fill="#224124"/>
<path d="M29.6299 27.6602C30.1399 27.8402 30.1299 28.4302 30.0199 28.7002C29.7399 29.3902 28.0099 29.2901 27.6799 28.8701C27.4799 28.6201 27.4499 27.9102 27.8899 27.7002C28.3599 27.4702 29.0299 27.4502 29.6299 27.6602Z" fill="#224124"/>
<path d="M47.0701 27.7401C47.5201 28.0001 47.4301 28.6601 47.2301 28.8801C46.8701 29.2701 45.3101 29.2702 45.0201 28.8302C44.8601 28.5902 44.8101 28.0101 45.2301 27.7401C45.6801 27.4501 46.5101 27.4201 47.0701 27.7401Z" fill="#224124"/>
<path d="M21.1206 26.4003C21.6006 26.6003 21.5206 27.1503 21.4206 27.3903C21.1106 28.0803 19.5106 28.0203 19.1906 27.6103C18.9606 27.3203 18.9106 26.6603 19.3706 26.4203C19.8306 26.1803 20.5306 26.1503 21.1206 26.4003Z" fill="#224124"/>
<path d="M12.8599 27.6401C13.3799 27.8401 13.3499 28.4101 13.2399 28.6901C12.9699 29.3901 11.1799 29.3901 10.9099 28.6401C10.8099 28.3601 10.8499 27.8101 11.3199 27.6301C11.7499 27.4701 12.3199 27.4301 12.8599 27.6401Z" fill="#224124"/>
<path d="M39.2405 35.2102C39.7505 35.3502 39.7905 35.8902 39.7005 36.1702C39.4305 36.9502 37.8005 36.8201 37.4505 36.3901C37.2905 36.1801 37.2205 35.5601 37.5405 35.3401C37.9705 35.0401 38.7205 35.0701 39.2405 35.2201V35.2102Z" fill="#224124"/>
<path d="M13.5303 37.6302L11.0703 37.1302C11.2203 36.2402 12.9303 36.2802 13.3103 36.7302C13.5003 36.9602 13.5603 37.3102 13.5303 37.6302Z" fill="#224124"/>
</svg>
